<?xml version="1.0" encoding="UTF-8"?>
<!DOCTYPE svg PUBLIC "-//W3C//DTD SVG 1.1//EN" "http://www.w3.org/Graphics/SVG/1.1/DTD/svg11.dtd">
<!-- Creator: CorelDRAW X6 -->
<svg xmlns="http://www.w3.org/2000/svg" xml:space="preserve" width="32.6799mm" height="11.5975mm" version="1.1" style="shape-rendering:geometricPrecision; text-rendering:geometricPrecision; image-rendering:optimizeQuality; fill-rule:evenodd; clip-rule:evenodd"
viewBox="0 0 6786 2408"
 xmlns:xlink="http://www.w3.org/1999/xlink">
 <defs>
  <style type="text/css">
   <![CDATA[
    .fil0 {fill:white}
    .fil1 {fill:white;fill-rule:nonzero}
   ]]>
  </style>
 </defs>
 <g id="Camada_x0020_1">
  <metadata id="CorelCorpID_0Corel-Layer"/>
  <path class="fil0" d="M1155 0l5422 0c115,0 209,94 209,209l0 1991c0,115 -94,209 -209,209l-5422 0 0 -181 1177 0c102,0 185,-83 185,-185l0 -1688c0,-102 -83,-185 -185,-185l-1177 0 0 -170zm3974 2148c-9,10 -9,60 0,68 65,0 208,-9 285,-9 141,0 267,9 340,9 9,-9 15,-59 9,-68 -79,-9 -106,-14 -147,-23 -56,-14 -79,-70 -82,-138 -8,-153 -6,-511 -9,-801 0,-9 9,-26 15,-26l434 0c12,3 15,12 15,21 0,120 -3,405 -3,566 0,188 3,264 38,335 47,94 138,135 247,135 103,0 211,-41 282,-132 6,-9 12,-62 6,-70 -50,32 -91,47 -170,47 -76,0 -138,-35 -164,-109 -9,-35 -18,-85 -21,-191 -3,-138 0,-434 3,-584 0,-6 6,-18 12,-18 79,0 232,6 317,6 3,-41 15,-100 23,-141 -41,6 -217,15 -337,15 -3,0 -12,-12 -12,-18 0,-249 9,-335 15,-379 -9,-3 -29,-6 -41,0 -29,35 -144,114 -194,138l0 241c0,6 -6,15 -12,18l-434 0c-9,0 -18,-15 -18,-21l0 -79c3,-238 12,-470 103,-558 38,-44 76,-56 120,-56 91,0 188,70 244,129 9,3 23,3 32,0 23,-21 85,-117 97,-153l0 -29c-29,-56 -117,-97 -220,-97 -76,0 -197,59 -276,117 -244,179 -311,396 -314,731 0,6 -6,18 -15,21 -29,18 -103,41 -138,44 -9,15 -23,50 -23,70l161 6c6,0 15,18 15,23 -3,311 -4,648 -9,806 -2,56 -8,121 -65,132l-109 21zm-501 -1142c-137,0 -274,47 -376,114 -149,102 -251,254 -251,481 0,294 152,615 571,615 122,0 254,-55 329,-105 178,-114 268,-309 268,-528 0,-324 -198,-577 -542,-577zm-99 96c251,0 402,239 402,574 0,175 -29,294 -111,373 -50,47 -117,64 -178,64 -233,0 -402,-239 -402,-583 0,-227 73,-335 149,-385 35,-29 96,-44 140,-44zm-1782 543c-13,-6 -69,6 -78,22 9,100 53,411 82,455 69,38 254,94 439,94 430,0 681,-264 681,-574 0,-232 -144,-364 -304,-467 -104,-66 -248,-135 -370,-220 -129,-91 -213,-188 -210,-361 0,-166 116,-326 333,-326 97,0 179,16 248,60 78,47 110,132 125,329 9,9 66,9 75,-3 13,-157 31,-317 53,-424 -129,-13 -254,-50 -461,-50 -336,0 -606,198 -606,527 0,276 188,433 455,593 276,166 408,273 408,480 0,235 -166,339 -339,339 -125,0 -226,-25 -307,-82 -104,-72 -169,-194 -223,-392z"/>
  <path class="fil1" d="M1951 1506l0 -1091c0,-46 -38,-84 -84,-84 -33,0 -53,15 -69,36l-817 1167c-13,18 -18,33 -18,51 0,43 36,79 79,79l741 0 0 330c0,46 38,84 84,84 46,0 84,-38 84,-84l0 -330 145 0c46,0 81,-36 81,-81 0,-43 -36,-76 -81,-76l-145 0zm-761 0l594 -853 0 853 -594 0z"/>
  <path class="fil0" d="M1016 0l-1016 0 0 170 147 0c102,0 185,83 185,185l0 1688c0,102 -83,185 -185,185l-147 0 0 181 1016 0 0 -181 -153 0c-102,0 -185,-83 -185,-185l0 -1688c0,-102 83,-185 185,-185l153 0 0 -170z"/>
 </g>
</svg>
