<?xml version="1.0" encoding="UTF-8"?>
<!DOCTYPE svg PUBLIC "-//W3C//DTD SVG 1.1//EN" "http://www.w3.org/Graphics/SVG/1.1/DTD/svg11.dtd">
<!-- Creator: CorelDRAW X6 -->
<svg xmlns="http://www.w3.org/2000/svg" xml:space="preserve" width="32.4153mm" height="15.6358mm" version="1.1" style="shape-rendering:geometricPrecision; text-rendering:geometricPrecision; image-rendering:optimizeQuality; fill-rule:evenodd; clip-rule:evenodd"
viewBox="0 0 3217 1552"
 xmlns:xlink="http://www.w3.org/1999/xlink">
 <defs>
  <style type="text/css">
   <![CDATA[
    .fil4 {fill:#65BC50}
    .fil0 {fill:#333333}
    .fil2 {fill:#65BC50;fill-rule:nonzero}
    .fil1 {fill:#FEFEFE;fill-rule:nonzero}
    .fil3 {fill:#666666;fill-rule:nonzero}
   ]]>
  </style>
 </defs>
 <g id="Camada_x0020_1">
  <metadata id="CorelCorpID_0Corel-Layer"/>
  <path class="fil0" d="M526 0l2592 0c55,0 100,45 100,100l0 952c0,55 -45,100 -100,100l-2592 0 0 -86 562 0c49,0 88,-40 88,-88l0 -807c0,-49 -40,-88 -88,-88l-562 0 0 -81z"/>
  <path class="fil1" d="M2185 481c-66,0 -131,22 -180,54 -71,49 -120,121 -120,230 0,141 72,294 273,294 59,0 121,-26 157,-50 85,-54 128,-148 128,-252 0,-155 -95,-276 -259,-276zm-47 46c120,0 192,114 192,275 0,84 -14,141 -53,178 -24,22 -56,31 -85,31 -111,0 -192,-114 -192,-279 0,-109 35,-160 71,-184 17,-14 46,-21 67,-21z"/>
  <path class="fil1" d="M2425 1027c-4,5 -4,29 0,33 31,0 100,-4 136,-4 67,0 128,4 163,4 4,-4 7,-28 4,-32 -38,-4 -51,-7 -70,-11 -27,-7 -38,-34 -39,-66 -4,-73 -3,-244 -4,-383 0,-4 4,-13 7,-13l208 0c6,1 7,6 7,10 0,58 -1,194 -1,271 0,90 1,126 18,160 22,45 66,65 118,65 49,0 101,-20 135,-63 3,-4 6,-29 3,-34 -24,15 -43,22 -81,22 -36,0 -66,-17 -79,-52 -4,-17 -8,-41 -10,-91 -1,-66 0,-208 1,-279 0,-3 3,-8 6,-8 38,0 111,3 151,3 1,-20 7,-48 11,-67 -20,3 -104,7 -161,7 -1,0 -6,-6 -6,-8 0,-119 4,-160 7,-181 -4,-1 -14,-3 -20,0 -14,17 -69,55 -93,66l0 115c0,3 -3,7 -6,8l-208 0c-4,0 -8,-7 -8,-10l0 -38c1,-114 6,-224 49,-267 18,-21 36,-27 58,-27 43,0 90,34 116,62 4,1 11,1 15,0 11,-10 41,-56 46,-73l0 -14c-14,-27 -56,-46 -105,-46 -36,0 -94,28 -132,56 -116,86 -149,189 -150,349 0,3 -3,8 -7,10 -14,8 -49,20 -66,21 -4,7 -11,24 -11,34l77 3c3,0 7,8 7,11 -1,148 -2,310 -4,385 -1,27 -4,58 -31,63l-52 10z"/>
  <path class="fil1" d="M1286 787c-6,-3 -33,3 -37,11 4,48 25,196 39,217 33,18 121,45 210,45 205,0 325,-126 325,-274 0,-111 -69,-174 -145,-223 -49,-31 -118,-64 -177,-105 -61,-43 -102,-90 -100,-172 0,-79 55,-156 159,-156 46,0 85,7 118,28 37,22 52,63 60,157 4,5 31,5 36,-1 6,-75 15,-151 25,-202 -61,-6 -121,-24 -220,-24 -160,0 -289,94 -289,252 0,132 90,207 217,283 132,79 195,130 195,229 0,112 -79,162 -162,162 -60,0 -108,-12 -147,-39 -49,-34 -81,-93 -106,-187z"/>
  <path class="fil2" d="M932 720l0 -522c0,-22 -18,-40 -40,-40 -16,0 -25,7 -33,17l-391 558c-6,8 -8,16 -8,24 0,21 17,38 38,38l354 0 0 158c0,22 18,40 40,40 22,0 40,-18 40,-40l0 -158 69 0c22,0 39,-17 39,-39 0,-21 -17,-36 -39,-36l-69 0zm-364 0l284 -408 0 408 -284 0z"/>
  <path class="fil3" d="M54 1306c0,-5 -4,-10 -10,-10 -6,0 -10,5 -10,10l0 180c0,5 4,10 10,10 6,0 10,-5 10,-10l0 -180zm120 52c-19,0 -33,9 -39,20l0 -9c0,-5 -4,-9 -9,-9 -5,0 -9,4 -9,9l0 118c0,5 4,9 9,9 5,0 9,-4 9,-9l0 -72c0,-23 10,-41 39,-41 28,0 35,16 35,39l0 74c0,5 4,9 9,9 5,0 9,-4 9,-9l0 -78c0,-25 -9,-51 -53,-51zm116 4l-11 0c-5,0 -9,4 -9,9 0,5 4,9 9,9l11 0 0 80c0,21 12,37 35,37 5,0 9,-4 9,-9 0,-5 -4,-9 -9,-9 -10,0 -17,-7 -17,-19l0 -80 19 0c5,0 9,-4 9,-9 0,-5 -4,-9 -9,-9l-19 0 0 -30c0,-5 -4,-9 -9,-9 -5,0 -9,4 -9,9l0 30zm86 66c0,49 24,70 63,70 26,0 41,-12 45,-16 2,-2 3,-3 3,-7 0,-5 -4,-8 -8,-8 -2,0 -3,1 -5,2 -8,6 -18,12 -35,12 -27,0 -44,-19 -44,-47l85 0c12,0 12,-10 12,-19 0,-20 -9,-57 -55,-57 -38,0 -60,25 -60,70zm97 -11l-78 0c2,-26 16,-42 41,-42 30,0 37,21 37,42zm77 -130c-5,0 -9,4 -9,9l0 166c0,22 11,34 30,34 5,0 9,-4 9,-9 0,-5 -4,-9 -9,-9 -8,0 -12,-5 -12,-17l0 -166c0,-5 -4,-9 -9,-9zm84 0c-5,0 -9,4 -9,9l0 166c0,22 11,34 30,34 5,0 9,-4 9,-9 0,-5 -4,-9 -9,-9 -8,0 -12,-5 -12,-17l0 -166c0,-5 -4,-9 -9,-9zm93 82c0,-5 -4,-9 -9,-9 -5,0 -9,4 -9,9l0 118c0,5 4,9 9,9 5,0 9,-4 9,-9l0 -118zm-9 -37c7,0 11,-4 11,-11 0,-8 -4,-12 -11,-12 -7,0 -11,3 -11,12 0,7 4,11 11,11zm116 26c-34,0 -53,19 -53,49 0,12 3,23 10,32 -7,5 -12,12 -12,20 0,11 7,20 18,24 -14,6 -22,16 -22,29 0,32 32,41 62,41 35,0 62,-12 62,-42 0,-27 -23,-39 -51,-39l-30 0c-17,0 -21,-6 -21,-12 0,-5 2,-8 5,-10 8,5 19,7 31,7 34,0 53,-19 53,-49 0,-12 -4,-23 -10,-31 2,-5 5,-9 14,-9 5,0 8,-4 8,-8 0,-5 -4,-8 -8,-8 -15,0 -21,7 -26,16 -8,-5 -19,-7 -31,-7zm0 81c-22,0 -35,-13 -35,-32 0,-19 12,-32 35,-32 22,0 35,13 35,32 0,19 -12,32 -35,32zm47 72c0,19 -20,26 -43,26 -23,0 -43,-7 -43,-24 0,-12 8,-20 24,-23l30 0c19,0 32,6 32,22zm57 -83c0,49 24,70 63,70 26,0 41,-12 45,-16 2,-2 3,-3 3,-7 0,-5 -4,-8 -8,-8 -2,0 -3,1 -5,2 -8,6 -18,12 -35,12 -27,0 -44,-19 -44,-47l85 0c12,0 12,-10 12,-19 0,-20 -9,-57 -55,-57 -38,0 -60,25 -60,70zm97 -11l-78 0c2,-26 16,-42 41,-42 30,0 37,21 37,42zm125 -59c-19,0 -33,9 -39,20l0 -9c0,-5 -4,-9 -9,-9 -5,0 -9,4 -9,9l0 118c0,5 4,9 9,9 5,0 9,-4 9,-9l0 -72c0,-23 10,-41 39,-41 28,0 35,16 35,39l0 74c0,5 4,9 9,9 5,0 9,-4 9,-9l0 -78c0,-25 -9,-51 -53,-51zm100 70c0,48 22,70 60,70 24,0 37,-10 44,-16 3,-3 4,-5 4,-7 0,-5 -4,-8 -8,-8 -2,0 -3,1 -6,2 -7,5 -17,12 -34,12 -27,0 -41,-17 -41,-53 0,-36 14,-53 41,-53 19,0 27,9 31,14 2,2 4,3 7,3 5,0 8,-3 8,-8 0,-2 -1,-3 -2,-6 -5,-6 -19,-20 -45,-20 -37,0 -60,22 -60,70zm149 0c0,49 24,70 63,70 26,0 41,-12 45,-16 2,-2 3,-3 3,-7 0,-5 -4,-8 -8,-8 -2,0 -3,1 -5,2 -8,6 -18,12 -35,12 -27,0 -44,-19 -44,-47l85 0c12,0 12,-10 12,-19 0,-20 -9,-57 -55,-57 -38,0 -60,25 -60,70zm97 -11l-78 0c2,-26 16,-42 41,-42 30,0 37,21 37,42zm143 -37l0 107c0,5 4,9 9,9 5,0 9,-4 9,-9l0 -107 26 0c5,0 9,-4 9,-9 0,-5 -4,-9 -9,-9l-26 0 0 -17c0,-19 9,-33 32,-33 5,0 9,-4 9,-9 0,-5 -4,-9 -9,-9 -35,0 -50,24 -50,50l0 17 -10 0c-5,0 -9,4 -9,9 0,5 4,9 9,9l10 0zm150 -21c-37,0 -61,22 -61,70 0,48 24,70 61,70 38,0 61,-22 61,-70 0,-48 -23,-70 -61,-70zm0 123c-27,0 -42,-16 -42,-53 0,-37 15,-53 42,-53 27,0 42,16 42,53 0,37 -15,53 -42,53zm129 -112c0,-5 -4,-9 -9,-9 -5,0 -9,4 -9,9l0 118c0,5 4,9 9,9 5,0 9,-4 9,-9l0 -65c0,-27 14,-45 40,-45 5,0 9,-4 9,-9 0,-5 -4,-9 -9,-9 -20,0 -35,10 -40,23l0 -13zm271 -34c2,3 5,4 8,4 5,0 9,-4 9,-9 0,-2 -1,-4 -2,-6 -12,-18 -35,-30 -62,-30 -42,0 -62,23 -62,50 0,69 110,43 110,98 0,26 -18,38 -50,38 -26,0 -42,-12 -52,-28 -2,-3 -5,-5 -8,-5 -5,0 -9,4 -9,9 0,2 0,3 1,5 10,19 35,36 68,36 45,0 70,-20 70,-56 0,-70 -110,-49 -110,-98 0,-17 12,-32 42,-32 24,0 38,12 47,23l0 0zm125 23c-37,0 -61,22 -61,70 0,48 24,70 61,70 38,0 61,-22 61,-70 0,-48 -23,-70 -61,-70zm0 123c-27,0 -42,-16 -42,-53 0,-37 15,-53 42,-53 27,0 42,16 42,53 0,37 -15,53 -42,53zm117 -101l0 107c0,5 4,9 9,9 5,0 9,-4 9,-9l0 -107 26 0c5,0 9,-4 9,-9 0,-5 -4,-9 -9,-9l-26 0 0 -17c0,-19 9,-33 32,-33 5,0 9,-4 9,-9 0,-5 -4,-9 -9,-9 -35,0 -50,24 -50,50l0 17 -10 0c-5,0 -9,4 -9,9 0,5 4,9 9,9l10 0zm106 -17l-11 0c-5,0 -9,4 -9,9 0,5 4,9 9,9l11 0 0 80c0,21 12,37 35,37 5,0 9,-4 9,-9 0,-5 -4,-9 -9,-9 -10,0 -17,-7 -17,-19l0 -80 19 0c5,0 9,-4 9,-9 0,-5 -4,-9 -9,-9l-19 0 0 -30c0,-5 -4,-9 -9,-9 -5,0 -9,4 -9,9l0 30zm195 127c1,4 5,7 9,7 4,0 7,-2 9,-6l43 -117c1,-1 1,-3 1,-4 0,-5 -4,-9 -9,-9 -4,0 -7,2 -9,6l-34 96 -28 -96c-1,-3 -4,-6 -9,-6 -5,0 -8,3 -9,6l-28 96 -34 -96c-1,-4 -5,-6 -9,-6 -5,0 -9,4 -9,9 0,1 0,3 1,4l43 117c1,4 5,6 9,6 4,0 8,-3 9,-7l27 -92 27 92zm150 -114c21,0 34,12 34,32l0 8 -41 0c-31,0 -51,15 -51,41 0,27 19,42 50,42 17,0 34,-7 42,-21l0 10c0,5 4,9 9,9 5,0 9,-4 9,-9l0 -80c0,-30 -19,-49 -52,-49 -24,0 -40,10 -48,23 -1,1 -1,3 -1,5 0,5 4,8 8,8 3,0 5,-1 8,-4 9,-10 18,-15 34,-15zm-6 105c-23,0 -33,-10 -33,-25 0,-17 13,-25 32,-25l41 0 0 12c0,25 -19,37 -40,37zm132 -112c0,-5 -4,-9 -9,-9 -5,0 -9,4 -9,9l0 118c0,5 4,9 9,9 5,0 9,-4 9,-9l0 -65c0,-27 14,-45 40,-45 5,0 9,-4 9,-9 0,-5 -4,-9 -9,-9 -20,0 -35,10 -40,23l0 -13zm80 59c0,49 24,70 63,70 26,0 41,-12 45,-16 2,-2 3,-3 3,-7 0,-5 -4,-8 -8,-8 -2,0 -3,1 -5,2 -8,6 -18,12 -35,12 -27,0 -44,-19 -44,-47l85 0c12,0 12,-10 12,-19 0,-20 -9,-57 -55,-57 -38,0 -60,25 -60,70zm97 -11l-78 0c2,-26 16,-42 41,-42 30,0 37,21 37,42z"/>
  <path class="fil4" d="M486 0l-486 0 0 81 70 0c49,0 88,40 88,88l0 807c0,49 -40,88 -88,88l-70 0 0 86 486 0 0 -86 -73 0c-49,0 -88,-40 -88,-88l0 -807c0,-49 40,-88 88,-88l73 0 0 -81z"/>
 </g>
</svg>
