<?xml version="1.0" encoding="UTF-8"?>
<!DOCTYPE svg PUBLIC "-//W3C//DTD SVG 1.1//EN" "http://www.w3.org/Graphics/SVG/1.1/DTD/svg11.dtd">
<!-- Creator: CorelDRAW X6 -->
<svg xmlns="http://www.w3.org/2000/svg" xml:space="preserve" width="32.6799mm" height="15.6358mm" version="1.1" style="shape-rendering:geometricPrecision; text-rendering:geometricPrecision; image-rendering:optimizeQuality; fill-rule:evenodd; clip-rule:evenodd"
viewBox="0 0 3242 1551"
 xmlns:xlink="http://www.w3.org/1999/xlink">
 <defs>
  <style type="text/css">
   <![CDATA[
    .fil4 {fill:#63A31F}
    .fil3 {fill:#606062;fill-rule:nonzero}
    .fil2 {fill:#64AC00;fill-rule:nonzero}
    .fil1 {fill:white;fill-rule:nonzero}
    .fil0 {fill:url(#id0)}
   ]]>
  </style>
  <linearGradient id="id0" gradientUnits="userSpaceOnUse" x1="1245.6" y1="1379.44" x2="2547.69" y2="-229.015">
   <stop offset="0" style="stop-color:#055D81"/>
   <stop offset="0.411765" style="stop-color:#055D81"/>
   <stop offset="0.760784" style="stop-color:#267BA8"/>
   <stop offset="1" style="stop-color:#61B2ED"/>
  </linearGradient>
 </defs>
 <g id="Camada_x0020_1">
  <metadata id="CorelCorpID_0Corel-Layer"/>
  <path class="fil0" d="M552 0l2590 0c55,0 100,45 100,100l0 951c0,55 -45,100 -100,100l-2590 0 0 -86 562 0c49,0 88,-40 88,-88l0 -807c0,-49 -40,-88 -88,-88l-562 0 0 -81z"/>
  <path class="fil1" d="M2210 481c-65,0 -131,22 -180,54 -71,49 -120,121 -120,230 0,141 72,294 273,294 58,0 121,-26 157,-50 85,-54 128,-148 128,-252 0,-155 -95,-276 -259,-276zm-47 46c120,0 192,114 192,274 0,84 -14,141 -53,178 -24,22 -56,31 -85,31 -111,0 -192,-114 -192,-279 0,-109 35,-160 71,-184 17,-14 46,-21 67,-21z"/>
  <path class="fil1" d="M2450 1026c-4,5 -4,29 0,33 31,0 100,-4 136,-4 67,0 128,4 163,4 4,-4 7,-28 4,-32 -38,-4 -51,-6 -70,-11 -27,-6 -38,-34 -39,-66 -4,-73 -3,-244 -4,-383 0,-4 4,-13 7,-13l207 0c6,1 7,6 7,10 0,57 -1,193 -1,271 0,90 1,126 18,160 22,45 66,64 118,64 49,0 101,-20 135,-63 3,-4 6,-29 3,-34 -24,15 -43,22 -81,22 -36,0 -66,-17 -79,-52 -4,-17 -8,-41 -10,-91 -1,-66 0,-207 1,-279 0,-3 3,-8 6,-8 38,0 111,3 151,3 1,-20 7,-48 11,-67 -20,3 -104,7 -161,7 -1,0 -6,-6 -6,-8 0,-119 4,-160 7,-181 -4,-1 -14,-3 -20,0 -14,17 -69,55 -93,66l0 115c0,3 -3,7 -6,8l-207 0c-4,0 -8,-7 -8,-10l0 -38c1,-114 6,-224 49,-266 18,-21 36,-27 57,-27 43,0 90,34 116,62 4,1 11,1 15,0 11,-10 41,-56 46,-73l0 -14c-14,-27 -56,-46 -105,-46 -36,0 -94,28 -132,56 -116,86 -149,189 -150,349 0,3 -3,8 -7,10 -14,8 -49,20 -66,21 -4,7 -11,24 -11,34l77 3c3,0 7,8 7,11 -1,148 -2,309 -4,385 -1,27 -4,58 -31,63l-52 10z"/>
  <path class="fil1" d="M1312 786c-6,-3 -33,3 -37,10 4,48 25,196 39,217 33,18 121,45 210,45 205,0 325,-126 325,-274 0,-111 -69,-174 -145,-223 -49,-31 -118,-64 -177,-105 -61,-43 -102,-90 -100,-172 0,-79 55,-156 159,-156 46,0 85,7 118,28 37,22 52,63 60,157 4,5 31,5 36,-1 6,-75 15,-151 25,-202 -61,-6 -121,-24 -220,-24 -160,0 -289,94 -289,252 0,132 90,207 217,283 132,79 195,130 195,229 0,112 -79,162 -162,162 -60,0 -108,-12 -147,-39 -49,-34 -81,-93 -106,-187z"/>
  <path class="fil2" d="M932 719l0 -521c0,-22 -18,-40 -40,-40 -16,0 -25,7 -33,17l-390 558c-6,8 -8,16 -8,24 0,21 17,38 38,38l354 0 0 158c0,22 18,40 40,40 22,0 40,-18 40,-40l0 -158 69 0c22,0 39,-17 39,-39 0,-21 -17,-36 -39,-36l-69 0zm-364 0l284 -407 0 407 -284 0z"/>
  <path class="fil3" d="M42 1302c0,-5 -4,-10 -10,-10 -6,0 -10,5 -10,10l0 182c0,5 4,10 10,10 6,0 10,-5 10,-10l0 -182zm122 53c-19,0 -33,9 -39,21l0 -9c0,-5 -4,-9 -9,-9 -5,0 -9,4 -9,9l0 119c0,5 4,9 9,9 5,0 9,-4 9,-9l0 -73c0,-24 10,-41 39,-41 28,0 35,16 35,39l0 75c0,5 4,9 9,9 5,0 9,-4 9,-9l0 -78c0,-25 -9,-52 -54,-52zm118 4l-11 0c-5,0 -9,4 -9,9 0,5 4,9 9,9l11 0 0 81c0,21 13,37 36,37 5,0 9,-4 9,-9 0,-5 -4,-9 -9,-9 -10,0 -17,-7 -17,-19l0 -81 19 0c5,0 9,-4 9,-9 0,-5 -4,-9 -9,-9l-19 0 0 -31c0,-5 -4,-9 -9,-9 -5,0 -9,4 -9,9l0 31zm87 66c0,49 24,71 63,71 26,0 41,-12 46,-16 2,-2 3,-4 3,-7 0,-5 -4,-9 -9,-9 -2,0 -4,1 -5,2 -8,6 -18,13 -35,13 -28,0 -44,-19 -44,-48l86 0c12,0 12,-10 12,-19 0,-20 -9,-57 -56,-57 -38,0 -61,25 -61,71zm98 -11l-79 0c2,-26 16,-43 41,-43 30,0 38,21 38,43zm78 -131c-5,0 -9,4 -9,9l0 168c0,23 11,34 31,34 5,0 9,-4 9,-9 0,-5 -4,-9 -9,-9 -8,0 -12,-5 -12,-17l0 -168c0,-5 -4,-9 -9,-9zm85 0c-5,0 -9,4 -9,9l0 168c0,23 11,34 31,34 5,0 9,-4 9,-9 0,-5 -4,-9 -9,-9 -8,0 -12,-5 -12,-17l0 -168c0,-5 -4,-9 -9,-9zm95 83c0,-5 -4,-9 -9,-9 -5,0 -9,4 -9,9l0 119c0,5 4,9 9,9 5,0 9,-4 9,-9l0 -119zm-9 -37c7,0 11,-4 11,-11 0,-9 -4,-12 -11,-12 -7,0 -11,3 -11,12 0,7 4,11 11,11zm117 26c-34,0 -54,19 -54,49 0,13 4,23 11,32 -7,5 -12,12 -12,21 0,11 7,20 18,24 -14,6 -22,16 -22,30 0,32 32,41 63,41 36,0 63,-12 63,-42 0,-28 -23,-40 -51,-40l-30 0c-18,0 -22,-6 -22,-12 0,-5 2,-8 5,-11 8,5 19,7 32,7 34,0 54,-19 54,-49 0,-13 -4,-23 -11,-32 2,-5 5,-9 14,-9 5,0 9,-4 9,-9 0,-5 -4,-9 -9,-9 -15,0 -21,7 -26,16 -8,-5 -19,-7 -31,-7zm0 82c-23,0 -35,-13 -35,-32 0,-19 12,-32 35,-32 23,0 35,13 35,32 0,19 -12,32 -35,32zm47 73c0,19 -21,26 -44,26 -23,0 -44,-7 -44,-25 0,-12 8,-21 25,-23l31 0c19,0 32,6 32,22zm57 -84c0,49 24,71 63,71 26,0 41,-12 46,-16 2,-2 3,-4 3,-7 0,-5 -4,-9 -9,-9 -2,0 -4,1 -5,2 -8,6 -18,13 -35,13 -28,0 -44,-19 -44,-48l86 0c12,0 12,-10 12,-19 0,-20 -9,-57 -56,-57 -38,0 -61,25 -61,71zm98 -11l-79 0c2,-26 16,-43 41,-43 30,0 38,21 38,43zm127 -60c-19,0 -33,9 -39,21l0 -9c0,-5 -4,-9 -9,-9 -5,0 -9,4 -9,9l0 119c0,5 4,9 9,9 5,0 9,-4 9,-9l0 -73c0,-24 10,-41 39,-41 29,0 35,16 35,39l0 75c0,5 4,9 9,9 5,0 9,-4 9,-9l0 -78c0,-25 -9,-52 -54,-52zm102 71c0,48 23,71 61,71 24,0 38,-11 44,-16 3,-3 4,-5 4,-7 0,-5 -4,-9 -9,-9 -2,0 -4,1 -6,2 -7,5 -17,13 -34,13 -27,0 -41,-17 -41,-54 0,-36 14,-53 41,-53 19,0 27,9 32,14 2,2 4,4 7,4 5,0 9,-4 9,-9 0,-2 -1,-4 -2,-6 -5,-6 -19,-20 -45,-20 -38,0 -61,22 -61,71zm151 0c0,49 24,71 63,71 26,0 41,-12 46,-16 2,-2 3,-4 3,-7 0,-5 -4,-9 -9,-9 -2,0 -4,1 -5,2 -8,6 -18,13 -35,13 -28,0 -44,-19 -44,-48l86 0c12,0 12,-10 12,-19 0,-20 -9,-57 -56,-57 -38,0 -61,25 -61,71zm98 -11l-79 0c2,-26 16,-43 41,-43 30,0 38,21 38,43zm145 -38l0 109c0,5 4,9 9,9 5,0 9,-4 9,-9l0 -109 27 0c5,0 9,-4 9,-9 0,-5 -4,-9 -9,-9l-27 0 0 -17c0,-19 9,-33 32,-33 5,0 9,-4 9,-9 0,-5 -4,-9 -9,-9 -36,0 -51,24 -51,51l0 17 -10 0c-5,0 -9,4 -9,9 0,5 4,9 9,9l10 0zm152 -22c-38,0 -62,22 -62,71 0,48 24,71 62,71 38,0 62,-23 62,-71 0,-48 -23,-71 -62,-71zm0 124c-27,0 -43,-16 -43,-54 0,-37 16,-53 43,-53 27,0 43,16 43,53 0,38 -16,54 -43,54zm131 -113c0,-5 -4,-9 -9,-9 -5,0 -9,4 -9,9l0 119c0,5 4,9 9,9 5,0 9,-4 9,-9l0 -66c0,-27 14,-46 41,-46 5,0 9,-4 9,-9 0,-5 -4,-9 -9,-9 -20,0 -35,10 -41,23l0 -13zm274 -34c2,3 5,4 8,4 5,0 9,-4 9,-9 0,-2 -1,-4 -2,-6 -12,-19 -35,-30 -63,-30 -43,0 -63,23 -63,50 0,70 111,44 111,99 0,26 -18,39 -51,39 -26,0 -43,-13 -52,-28 -2,-3 -5,-5 -8,-5 -5,0 -9,4 -9,9 0,2 0,3 1,5 10,19 35,36 68,36 45,0 71,-20 71,-57 0,-71 -111,-50 -111,-99 0,-17 12,-32 43,-32 25,0 39,12 48,23l0 0zm127 23c-38,0 -62,22 -62,71 0,48 24,71 62,71 38,0 62,-23 62,-71 0,-48 -23,-71 -62,-71zm0 124c-27,0 -43,-16 -43,-54 0,-37 16,-53 43,-53 27,0 43,16 43,53 0,38 -16,54 -43,54zm118 -103l0 109c0,5 4,9 9,9 5,0 9,-4 9,-9l0 -109 27 0c5,0 9,-4 9,-9 0,-5 -4,-9 -9,-9l-27 0 0 -17c0,-19 9,-33 32,-33 5,0 9,-4 9,-9 0,-5 -4,-9 -9,-9 -36,0 -51,24 -51,51l0 17 -10 0c-5,0 -9,4 -9,9 0,5 4,9 9,9l10 0zm107 -18l-11 0c-5,0 -9,4 -9,9 0,5 4,9 9,9l11 0 0 81c0,21 13,37 36,37 5,0 9,-4 9,-9 0,-5 -4,-9 -9,-9 -10,0 -17,-7 -17,-19l0 -81 19 0c5,0 9,-4 9,-9 0,-5 -4,-9 -9,-9l-19 0 0 -31c0,-5 -4,-9 -9,-9 -5,0 -9,4 -9,9l0 31zm198 129c1,4 5,7 9,7 4,0 7,-2 9,-6l43 -118c1,-1 1,-3 1,-4 0,-5 -4,-9 -9,-9 -4,0 -7,2 -9,6l-34 97 -28 -97c-1,-3 -4,-6 -9,-6 -5,0 -8,3 -9,6l-28 97 -34 -97c-1,-4 -5,-6 -9,-6 -5,0 -9,4 -9,9 0,1 0,3 1,4l43 118c1,4 5,6 9,6 4,0 8,-3 9,-7l27 -93 27 93zm152 -115c21,0 35,12 35,32l0 8 -41 0c-32,0 -51,16 -51,41 0,27 20,42 51,42 18,0 35,-7 42,-21l0 11c0,5 4,9 9,9 5,0 9,-4 9,-9l0 -81c0,-30 -19,-50 -53,-50 -25,0 -41,10 -49,23 -1,1 -1,3 -1,5 0,5 4,9 9,9 3,0 5,-1 8,-4 9,-10 19,-15 34,-15zm-6 107c-23,0 -34,-10 -34,-25 0,-17 13,-25 32,-25l41 0 0 12c0,25 -20,38 -40,38zm134 -113c0,-5 -4,-9 -9,-9 -5,0 -9,4 -9,9l0 119c0,5 4,9 9,9 5,0 9,-4 9,-9l0 -66c0,-27 14,-46 41,-46 5,0 9,-4 9,-9 0,-5 -4,-9 -9,-9 -20,0 -35,10 -41,23l0 -13zm81 59c0,49 24,71 63,71 26,0 41,-12 46,-16 2,-2 3,-4 3,-7 0,-5 -4,-9 -9,-9 -2,0 -4,1 -5,2 -8,6 -18,13 -35,13 -28,0 -44,-19 -44,-48l86 0c12,0 12,-10 12,-19 0,-20 -9,-57 -56,-57 -38,0 -61,25 -61,71zm98 -11l-79 0c2,-26 16,-43 41,-43 30,0 38,21 38,43z"/>
  <path class="fil4" d="M486 0l-486 0 0 81 70 0c49,0 88,40 88,88l0 807c0,49 -40,88 -88,88l-70 0 0 86 486 0 0 -86 -73 0c-49,0 -88,-40 -88,-88l0 -807c0,-49 40,-88 88,-88l73 0 0 -81z"/>
 </g>
</svg>
